<svg width="64" height="58" viewBox="0 0 64 58" fill="none" xmlns="http://www.w3.org/2000/svg">
<path d="M52.7288 29V46.75C52.7288 48.6356 52.7288 49.5784 52.143 50.1642C51.5572 50.75 50.6144 50.75 48.7288 50.75H17.25C14.4216 50.75 13.0074 50.75 12.1287 49.8713C11.25 48.9926 11.25 47.5645 11.25 44.7083V44.7083C11.25 41.8521 11.25 40.424 12.1287 39.5453C13.0074 38.6667 14.4216 38.6667 17.25 38.6667H48.7288C50.6144 38.6667 51.5572 38.6667 52.143 38.0809C52.7288 37.4951 52.7288 36.5523 52.7288 34.6667V11.25C52.7288 9.36438 52.7288 8.42157 52.143 7.83579C51.5572 7.25 50.6144 7.25 48.7288 7.25H15.25C13.3644 7.25 12.4216 7.25 11.8358 7.83579C11.25 8.42157 11.25 9.36438 11.25 11.25V44.7083" stroke="white" stroke-width="3"/>
<path d="M24.2129 24.1663L28.7159 28.364C29.0999 28.7221 29.6955 28.7221 30.0796 28.364L39.7674 19.333" stroke="white" stroke-width="2" stroke-linecap="round"/>
</svg>
