<svg width="26" height="26" viewBox="0 0 26 26" fill="none" xmlns="http://www.w3.org/2000/svg">
<path fill-rule="evenodd" clip-rule="evenodd" d="M13 26C20.1797 26 26 20.1797 26 13C26 5.8203 20.1797 0 13 0C5.8203 0 0 5.8203 0 13C0 20.1797 5.8203 26 13 26ZM20.9349 8.87332C21.4653 8.2369 21.3793 7.29106 20.7429 6.76071C20.1065 6.23037 19.1606 6.31635 18.6303 6.95277L11.5541 15.4442C11.4156 15.6103 11.3029 15.7455 11.2034 15.861C11.0938 15.755 10.9693 15.6306 10.8164 15.4777L7.27805 11.9393C6.69227 11.3536 5.74252 11.3536 5.15673 11.9393C4.57094 12.5251 4.57094 13.4749 5.15673 14.0607L8.69508 17.599L8.747 17.651L8.74701 17.651C9.06289 17.9671 9.39981 18.3043 9.72071 18.5469C10.0937 18.829 10.6365 19.1354 11.3504 19.103C12.0644 19.0706 12.5772 18.7163 12.9231 18.4017C13.2207 18.1309 13.5258 17.7646 13.8117 17.4212L13.8587 17.3648L20.9349 8.87332Z" fill="white"/>
</svg>
