<svg width="27" height="27" viewBox="0 0 27 27" fill="none" xmlns="http://www.w3.org/2000/svg">
<path fill-rule="evenodd" clip-rule="evenodd" d="M13.1624 26.3247C20.4317 26.3247 26.3247 20.4317 26.3247 13.1624C26.3247 5.89299 20.4317 0 13.1624 0C5.89299 0 0 5.89299 0 13.1624C0 20.4317 5.89299 26.3247 13.1624 26.3247ZM21.599 9.17413C21.9759 8.77038 21.9541 8.1376 21.5503 7.76075C21.1466 7.38391 20.5138 7.40572 20.137 7.80946L12.7531 15.7204C12.4188 16.0785 12.2346 16.2729 12.0895 16.392L12.0839 16.3965L12.078 16.3925C11.9227 16.2871 11.7215 16.1103 11.3561 15.784L7.58415 12.4164C7.17218 12.0485 6.54002 12.0843 6.1722 12.4963C5.80438 12.9083 5.84018 13.5404 6.25215 13.9083L10.0241 17.2759L10.0641 17.3116C10.3738 17.5883 10.6756 17.8578 10.9547 18.0473C11.2699 18.2612 11.6722 18.4563 12.1767 18.4334C12.6812 18.4104 13.0641 18.1795 13.3585 17.9378C13.6193 17.7237 13.8953 17.4279 14.1786 17.1242L14.2152 17.0851L21.599 9.17413Z" fill="white"/>
</svg>
