<svg width="130" height="130" viewBox="0 0 130 130" fill="none" xmlns="http://www.w3.org/2000/svg">
<path fill-rule="evenodd" clip-rule="evenodd" d="M60.4965 64.5544L4.27592 45.8142C1.9227 45.0298 0.746094 44.6376 0.746094 43.9168C0.746094 43.1961 1.92267 42.8039 4.27582 42.0195L4.27588 42.0195L4.27592 42.0195L126.039 1.43175C127.695 0.879825 128.523 0.60386 128.96 1.04088C129.397 1.47789 129.121 2.30577 128.569 3.96151V3.96158L87.9812 125.725C87.1968 128.078 86.8046 129.255 86.0838 129.255C85.3631 129.255 84.9709 128.078 84.1865 125.725L84.1865 125.725L84.1864 125.725L65.4463 69.5042L95.8504 39.1001C97.2172 37.7332 97.2172 35.5171 95.8504 34.1503C94.4835 32.7835 92.2674 32.7835 90.9006 34.1503L60.4965 64.5544Z" fill="white"/>
</svg>
