<svg width="50" height="55" viewBox="0 0 50 55" fill="none" xmlns="http://www.w3.org/2000/svg">
<path d="M19.8005 37.3321C19.2005 37.4684 18.7505 37.6046 18.3005 37.8771C17.7004 37.0596 17.2504 36.1059 16.6504 35.4247C15.6004 34.0622 14.4003 32.836 13.3502 31.4735C11.7002 29.4298 10.3501 27.3862 9.75009 24.7975C8.40002 18.3939 12.3002 12.1266 19.0505 9.67413C27.9009 6.40422 38.1014 11.8541 39.4514 20.4376C40.0515 24.3887 38.7014 27.6586 36.3013 30.7923C35.2512 32.1548 33.9012 33.5172 32.8511 35.0159C32.1011 35.9697 31.6511 36.9234 30.9011 37.8771C30.6011 38.2859 30.301 38.6946 29.851 38.8308C26.4008 40.0571 22.9507 41.147 19.5005 42.237C19.0505 42.3732 18.7505 42.237 18.6005 41.9645C18.4505 41.5558 18.4505 41.147 18.9005 41.0108C19.2005 40.8745 19.5005 40.7383 19.8005 40.7383C22.8007 39.7846 25.8008 38.8308 28.8009 37.7409C29.101 37.6046 29.401 37.3321 29.551 37.0596C30.751 35.0159 32.2511 33.381 33.7512 31.4735C35.2513 29.7023 36.6013 28.0674 37.2013 25.8874C38.7014 21.5276 37.6514 17.7127 34.3512 14.4428C30.601 10.6279 25.8008 9.40164 20.4006 10.9004C15.0003 12.3991 12.0002 15.8052 10.9501 20.8463C10.2001 24.3887 11.5501 27.3862 13.8002 30.1111C15.1503 31.746 16.5004 33.381 17.8504 35.0159C18.7505 35.5609 19.2005 36.3784 19.8005 37.3321Z" fill="white"/>
<path d="M19.0516 50.8205C18.9016 50.6843 18.6016 50.5481 18.6016 50.2756C18.6016 50.0031 18.7516 49.7306 18.9016 49.4581C18.9016 49.3218 19.2016 49.3218 19.3516 49.3218C22.6517 48.2319 26.1019 47.1419 29.4021 46.0519C30.1521 45.7794 30.4521 45.9157 30.6021 46.3244C30.7521 46.7332 30.4521 47.1419 29.8521 47.4144C26.4019 48.5044 23.1018 49.5943 19.6516 50.8205C19.5016 50.6843 19.3516 50.6843 19.0516 50.8205Z" fill="white"/>
<path d="M19.0516 46.3235C18.9016 46.1872 18.6016 46.051 18.6016 45.7785C18.6016 45.506 18.7516 45.2335 18.9016 44.961C18.9016 44.8248 19.2016 44.8248 19.3516 44.8248C22.6517 43.7348 26.1019 42.6448 29.4021 41.5549C30.1521 41.2824 30.4521 41.4186 30.6021 41.8273C30.7521 42.2361 30.6021 42.6448 29.8521 42.9173C26.4019 44.0073 23.1018 45.2335 19.6516 46.3235C19.5016 46.3235 19.3516 46.3235 19.0516 46.3235Z" fill="white"/>
<path d="M29.852 50.1387C28.802 53.4086 22.9517 55.316 19.3516 53.5448C22.8017 52.4549 26.2519 51.2286 29.852 50.1387Z" fill="white"/>
<path d="M25.3516 2.45243C25.3516 2.99742 25.3516 3.5424 25.3516 4.08739C25.3516 4.49613 25.0516 4.76862 24.6016 4.76862C24.1516 4.76862 23.8516 4.49613 23.8516 4.08739C23.8516 2.99742 23.8516 1.90745 23.8516 0.681231C23.8516 0.272493 24.1516 0 24.6016 0C25.0516 0 25.3516 0.272493 25.3516 0.681231C25.3516 1.22622 25.3516 1.90745 25.3516 2.45243Z" fill="white"/>
<path d="M2.70011 21.5273C3.30013 21.5273 3.90018 21.5273 4.50021 21.5273C5.10023 21.5273 5.40026 21.7998 5.40026 22.2086C5.40026 22.6173 5.10023 22.8898 4.50021 22.8898C3.30015 22.8898 2.10011 22.8898 0.900051 22.8898C0.300023 22.8898 0 22.6173 0 22.2086C0 21.7998 0.300023 21.5273 0.900051 21.5273C1.50008 21.5273 2.10008 21.5273 2.70011 21.5273Z" fill="white"/>
<path d="M46.5033 23.0265C45.9032 23.0265 45.3032 23.0265 44.7032 23.0265C44.2531 23.0265 43.9531 22.754 43.9531 22.3453C43.9531 21.9366 44.2531 21.6641 44.7032 21.6641C45.9032 21.6641 47.2533 21.6641 48.4533 21.6641C48.9034 21.6641 49.2034 21.9366 49.2034 22.3453C49.2034 22.754 48.9034 23.0265 48.4533 23.0265C47.7033 23.0265 47.1033 23.0265 46.5033 23.0265Z" fill="white"/>
<path d="M7.49967 5.99414C7.79968 6.13039 7.94968 6.26663 8.09969 6.40288C8.99973 7.22036 9.74978 7.90159 10.6498 8.71907C11.0998 9.1278 11.0998 9.4003 10.6498 9.80904C10.3498 10.0815 9.89976 10.0815 9.44974 9.80904C8.5497 8.99156 7.64968 8.31033 6.89965 7.49285C6.74964 7.3566 6.59963 6.94786 6.74963 6.67537C6.89964 6.26663 7.34966 6.13039 7.49967 5.99414Z" fill="white"/>
<path d="M38.8516 34.4697C39.1516 34.606 39.3016 34.7422 39.4516 34.8785C40.3517 35.5597 41.1017 36.3772 42.0018 37.0584C42.4518 37.4671 42.4518 37.8759 42.1518 38.1484C41.8518 38.4209 41.4017 38.4209 40.9517 38.0121C40.0517 37.1947 39.3016 36.5134 38.4016 35.6959C38.2516 35.5597 38.1016 35.151 38.2516 34.8785C38.2516 34.7422 38.5516 34.606 38.8516 34.4697Z" fill="white"/>
<path d="M42.4525 6.81189C42.3025 7.08438 42.1525 7.22062 42.0025 7.35687C41.1025 8.17435 40.3524 8.85558 39.4524 9.67306C39.1524 9.94555 38.7024 10.0818 38.2524 9.67306C37.9523 9.40056 37.9523 8.99183 38.2524 8.58309C39.1524 7.76561 39.9024 6.94813 40.8024 6.2669C40.9525 6.13065 41.4025 5.99441 41.7025 6.13065C42.0025 6.2669 42.1525 6.67564 42.4525 6.81189Z" fill="white"/>
<path d="M7.50067 38.4216C7.35067 38.2854 7.05066 38.1491 6.90065 37.8766C6.75065 37.7404 6.90065 37.3316 6.90065 37.1954C7.8007 36.3779 8.70073 35.4242 9.75078 34.6067C10.0508 34.3342 10.5008 34.3342 10.8008 34.6067C11.1008 34.8792 11.1008 35.2879 10.8008 35.5604C9.90076 36.3779 9.00073 37.1954 8.10069 38.0129C7.95068 38.2854 7.80069 38.4216 7.50067 38.4216Z" fill="white"/>
</svg>
