<svg width="155" height="61" viewBox="0 0 155 61" fill="none" xmlns="http://www.w3.org/2000/svg">
<rect x="1" y="1" width="153" height="59" rx="21" fill="#092131"/>
<rect x="1" y="1" width="153" height="59" rx="21" stroke="white" stroke-width="2"/>
<path d="M77.1442 25.2768L67.186 33.4785V42.3306C67.186 42.5598 67.277 42.7796 67.4391 42.9417C67.6012 43.1038 67.821 43.1948 68.0502 43.1948L74.1028 43.1792C74.3313 43.178 74.55 43.0865 74.7111 42.9245C74.8722 42.7626 74.9627 42.5434 74.9627 42.315V37.1454C74.9627 36.9163 75.0537 36.6964 75.2158 36.5344C75.3779 36.3723 75.5977 36.2813 75.8269 36.2813H79.2837C79.5129 36.2813 79.7327 36.3723 79.8948 36.5344C80.0568 36.6964 80.1479 36.9163 80.1479 37.1454V42.3112C80.1475 42.4249 80.1696 42.5376 80.2129 42.6427C80.2562 42.7479 80.3198 42.8435 80.4 42.924C80.4803 43.0046 80.5757 43.0684 80.6807 43.112C80.7858 43.1556 80.8984 43.1781 81.0121 43.1781L87.0625 43.1948C87.2917 43.1948 87.5115 43.1038 87.6736 42.9417C87.8357 42.7796 87.9267 42.5598 87.9267 42.3306V33.4726L77.9706 25.2768C77.8536 25.1824 77.7078 25.131 77.5574 25.131C77.4071 25.131 77.2613 25.1824 77.1442 25.2768ZM92.8743 30.8514L88.3588 27.1294V19.6481C88.3588 19.4762 88.2905 19.3114 88.169 19.1898C88.0474 19.0683 87.8826 19 87.7107 19H84.686C84.5141 19 84.3492 19.0683 84.2277 19.1898C84.1061 19.3114 84.0378 19.4762 84.0378 19.6481V23.57L79.2021 19.5914C78.7381 19.2096 78.1557 19.0008 77.5547 19.0008C76.9538 19.0008 76.3714 19.2096 75.9074 19.5914L62.2352 30.8514C62.1696 30.9056 62.1153 30.9723 62.0754 31.0475C62.0356 31.1228 62.0109 31.2051 62.0029 31.2899C61.9949 31.3747 62.0036 31.4602 62.0287 31.5416C62.0537 31.6229 62.0945 31.6986 62.1488 31.7642L63.5261 33.4386C63.5803 33.5044 63.6468 33.5589 63.7221 33.599C63.7973 33.639 63.8797 33.6639 63.9645 33.672C64.0494 33.6802 64.135 33.6716 64.2165 33.6466C64.298 33.6217 64.3738 33.5809 64.4395 33.5266L77.1442 23.0623C77.2613 22.9679 77.4071 22.9165 77.5574 22.9165C77.7078 22.9165 77.8536 22.9679 77.9706 23.0623L90.676 33.5266C90.7416 33.5809 90.8172 33.6217 90.8986 33.6468C90.98 33.6718 91.0655 33.6806 91.1503 33.6725C91.235 33.6645 91.3174 33.6399 91.3926 33.6C91.4679 33.5601 91.5345 33.5058 91.5888 33.4402L92.9661 31.7658C93.0203 31.6998 93.061 31.6238 93.0857 31.5421C93.1105 31.4603 93.1188 31.3745 93.1103 31.2895C93.1017 31.2045 93.0765 31.1221 93.036 31.0469C92.9955 30.9717 92.9405 30.9053 92.8743 30.8514Z" fill="white"/>
</svg>
