<svg width="56" height="56" viewBox="0 0 56 56" fill="none" xmlns="http://www.w3.org/2000/svg">
<g id="Group 30">
<g id="Group 3">
<g id="Group 39">
<circle id="Ellipse 17" cx="28" cy="28" r="28" fill="white"/>
<g id="Group 38">
<path id="Vector" d="M27.5891 22.4545L17.6308 30.6563V39.5084C17.6308 39.7376 17.7219 39.9574 17.8839 40.1194C18.046 40.2815 18.2658 40.3726 18.495 40.3726L24.5476 40.3569C24.7761 40.3558 24.9948 40.2642 25.1559 40.1023C25.3171 39.9403 25.4075 39.7212 25.4075 39.4927V34.3232C25.4075 34.094 25.4986 33.8742 25.6606 33.7121C25.8227 33.55 26.0425 33.459 26.2717 33.459H29.7285C29.9577 33.459 30.1775 33.55 30.3396 33.7121C30.5017 33.8742 30.5927 34.094 30.5927 34.3232V39.4889C30.5923 39.6026 30.6144 39.7153 30.6577 39.8205C30.701 39.9256 30.7646 40.0212 30.8449 40.1018C30.9251 40.1823 31.0205 40.2462 31.1256 40.2898C31.2306 40.3334 31.3432 40.3558 31.4569 40.3558L37.5074 40.3726C37.7366 40.3726 37.9564 40.2815 38.1184 40.1194C38.2805 39.9574 38.3716 39.7376 38.3716 39.5084V30.6503L28.4155 22.4545C28.2984 22.3602 28.1526 22.3087 28.0023 22.3087C27.8519 22.3087 27.7061 22.3602 27.5891 22.4545ZM43.3191 28.0291L38.8037 24.3071V16.8259C38.8037 16.654 38.7354 16.4891 38.6138 16.3676C38.4923 16.246 38.3274 16.1777 38.1555 16.1777H35.1308C34.9589 16.1777 34.7941 16.246 34.6725 16.3676C34.551 16.4891 34.4827 16.654 34.4827 16.8259V20.7477L29.6469 16.7692C29.1829 16.3873 28.6006 16.1785 27.9996 16.1785C27.3986 16.1785 26.8163 16.3873 26.3522 16.7692L12.68 28.0291C12.6144 28.0834 12.5601 28.15 12.5203 28.2253C12.4804 28.3005 12.4557 28.3829 12.4477 28.4676C12.4397 28.5524 12.4484 28.6379 12.4735 28.7193C12.4985 28.8007 12.5393 28.8763 12.5936 28.9419L13.9709 30.6163C14.0251 30.6821 14.0917 30.7366 14.1669 30.7767C14.2421 30.8168 14.3245 30.8416 14.4094 30.8498C14.4942 30.858 14.5798 30.8493 14.6613 30.8244C14.7428 30.7994 14.8186 30.7586 14.8843 30.7044L27.5891 20.24C27.7061 20.1457 27.8519 20.0942 28.0023 20.0942C28.1526 20.0942 28.2984 20.1457 28.4155 20.24L41.1208 30.7044C41.1864 30.7586 41.262 30.7995 41.3434 30.8245C41.4248 30.8495 41.5103 30.8583 41.5951 30.8503C41.6799 30.8422 41.7622 30.8176 41.8375 30.7777C41.9127 30.7379 41.9793 30.6836 42.0336 30.6179L43.4109 28.9436C43.4651 28.8776 43.5058 28.8015 43.5305 28.7198C43.5553 28.6381 43.5636 28.5522 43.5551 28.4673C43.5466 28.3823 43.5213 28.2998 43.4808 28.2246C43.4403 28.1494 43.3854 28.083 43.3191 28.0291Z" fill="#1B6392"/>
</g>
</g>
</g>
</g>
</svg>
