<svg width="39" height="39" viewBox="0 0 39 39" fill="none" xmlns="http://www.w3.org/2000/svg">
<g clip-path="url(#clip0_322_157)">
<path d="M35.8068 0.805908H3.41708C2.67311 0.805908 1.95961 1.10145 1.43355 1.62751C0.907479 2.15358 0.611938 2.86708 0.611938 3.61105V36.0008C0.611938 36.7447 0.907479 37.4582 1.43355 37.9843C1.95961 38.5104 2.67311 38.8059 3.41708 38.8059H35.8068C36.5508 38.8059 37.2643 38.5104 37.7903 37.9843C38.3164 37.4582 38.6119 36.7447 38.6119 36.0008V3.61105C38.6119 2.86708 38.3164 2.15358 37.7903 1.62751C37.2643 1.10145 36.5508 0.805908 35.8068 0.805908ZM11.938 33.1772H6.22486V15.0295H11.938V33.1772ZM9.0775 12.5147C8.42943 12.511 7.79697 12.3155 7.25993 11.9527C6.7229 11.59 6.30535 11.0762 6.05999 10.4764C5.81464 9.87658 5.75246 9.21751 5.88132 8.58238C6.01018 7.94724 6.32429 7.36451 6.78402 6.90773C7.24374 6.45095 7.82848 6.14058 8.46443 6.0158C9.10038 5.89103 9.75903 5.95743 10.3573 6.20664C10.9555 6.45584 11.4665 6.87667 11.8258 7.41603C12.1851 7.95538 12.3766 8.58909 12.3761 9.23716C12.3822 9.67105 12.3009 10.1017 12.137 10.5035C11.9732 10.9053 11.7301 11.27 11.4223 11.5758C11.1144 11.8817 10.7482 12.1224 10.3454 12.2837C9.94252 12.445 9.51133 12.5236 9.0775 12.5147ZM32.9964 33.193H27.2858V23.2787C27.2858 20.3548 26.0429 19.4523 24.4385 19.4523C22.7443 19.4523 21.0818 20.7295 21.0818 23.3526V33.193H15.3686V15.0427H20.8628V17.5576H20.9367C21.4882 16.4413 23.4199 14.5334 26.3675 14.5334C29.5553 14.5334 32.999 16.4255 32.999 21.9672L32.9964 33.193Z" fill="white"/>
</g>
<defs>
<clipPath id="clip0_322_157">
<rect width="38" height="38" fill="white" transform="translate(0.611938 0.805908)"/>
</clipPath>
</defs>
</svg>
