<svg width="53" height="85" viewBox="0 0 53 85" fill="none" xmlns="http://www.w3.org/2000/svg">
<path d="M18.4228 74H15.6868L11.1108 67.072V74H8.37481V62.768H11.1108L15.6868 69.728V62.768H18.4228V74ZM28.8221 69.392C28.8221 69.648 28.8061 69.9147 28.7741 70.192H22.5821C22.6247 70.7467 22.8007 71.1733 23.1101 71.472C23.4301 71.76 23.8194 71.904 24.2781 71.904C24.9607 71.904 25.4354 71.616 25.7021 71.04H28.6141C28.4647 71.6267 28.1927 72.1547 27.7981 72.624C27.4141 73.0933 26.9287 73.4613 26.3421 73.728C25.7554 73.9947 25.0994 74.128 24.3741 74.128C23.4994 74.128 22.7207 73.9413 22.0381 73.568C21.3554 73.1947 20.8221 72.6613 20.4381 71.968C20.0541 71.2747 19.8621 70.464 19.8621 69.536C19.8621 68.608 20.0487 67.7973 20.4221 67.104C20.8061 66.4107 21.3394 65.8773 22.0221 65.504C22.7047 65.1307 23.4887 64.944 24.3741 64.944C25.2381 64.944 26.0061 65.1253 26.6781 65.488C27.3501 65.8507 27.8727 66.368 28.2461 67.04C28.6301 67.712 28.8221 68.496 28.8221 69.392ZM26.0221 68.672C26.0221 68.2027 25.8621 67.8293 25.5421 67.552C25.2221 67.2747 24.8221 67.136 24.3421 67.136C23.8834 67.136 23.4941 67.2693 23.1741 67.536C22.8647 67.8027 22.6727 68.1813 22.5981 68.672H26.0221ZM35.5454 74L33.8334 71.52L32.3934 74H29.4334L32.3774 69.44L29.3534 65.072H32.4254L34.1374 67.536L35.5774 65.072H38.5374L35.5454 69.568L38.6174 74H35.5454ZM44.6477 71.68V74H43.2557C42.2637 74 41.4904 73.76 40.9357 73.28C40.381 72.7893 40.1037 71.9947 40.1037 70.896V67.344H39.0157V65.072H40.1037V62.896H42.8397V65.072H44.6317V67.344H42.8397V70.928C42.8397 71.1947 42.9037 71.3867 43.0317 71.504C43.1597 71.6213 43.373 71.68 43.6717 71.68H44.6477Z" fill="black"/>
<circle cx="25.9699" cy="25.97" r="25.97" fill="#16283D"/>
<path d="M15.4096 26.0943L36.6578 26.0943M36.6578 26.0943L28.8295 33.9226M36.6578 26.0943L28.8295 18.266" stroke="white" stroke-width="3" stroke-linecap="round" stroke-linejoin="round"/>
</svg>
