<svg width="42" height="42" viewBox="0 0 42 42" fill="none" xmlns="http://www.w3.org/2000/svg">
<path d="M7.21875 34.7812C5.49375 33.0563 6.6375 29.4375 5.75625 27.3187C4.875 25.2 1.5 23.3438 1.5 21C1.5 18.6562 4.8375 16.875 5.75625 14.6813C6.675 12.4875 5.49375 8.94375 7.21875 7.21875C8.94375 5.49375 12.5625 6.6375 14.6813 5.75625C16.8 4.875 18.6562 1.5 21 1.5C23.3438 1.5 25.125 4.8375 27.3187 5.75625C29.5125 6.675 33.0563 5.49375 34.7812 7.21875C36.5062 8.94375 35.3625 12.5625 36.2438 14.6813C37.125 16.8 40.5 18.6562 40.5 21C40.5 23.3438 37.1625 25.125 36.2438 27.3187C35.325 29.5125 36.5062 33.0563 34.7812 34.7812C33.0563 36.5062 29.4375 35.3625 27.3187 36.2438C25.2 37.125 23.3438 40.5 21 40.5C18.6562 40.5 16.875 37.1625 14.6813 36.2438C12.4875 35.325 8.94375 36.5062 7.21875 34.7812Z" stroke="#191C1F" stroke-width="2" stroke-linecap="round" stroke-linejoin="round"/>
<path d="M21 12V22.5" stroke="#191C1F" stroke-width="3" stroke-linecap="round" stroke-linejoin="round"/>
<path d="M21 31.5C22.2426 31.5 23.25 30.4926 23.25 29.25C23.25 28.0074 22.2426 27 21 27C19.7574 27 18.75 28.0074 18.75 29.25C18.75 30.4926 19.7574 31.5 21 31.5Z" fill="#191C1F"/>
</svg>
