<svg width="29" height="36" viewBox="0 0 29 36" fill="none" xmlns="http://www.w3.org/2000/svg">
<path fill-rule="evenodd" clip-rule="evenodd" d="M15.2 0V10.6L15.2 10.6544V10.6544V10.6544V10.6544C15.1999 11.0785 15.1998 11.4906 15.2455 11.8305C15.297 12.2137 15.4226 12.651 15.7858 13.0142C16.149 13.3774 16.5863 13.503 16.9695 13.5545C17.3094 13.6002 17.7215 13.6001 18.1456 13.6L18.2 13.6H28.8V25.2C28.8 30.2912 28.8 32.8368 27.2184 34.4184C25.6368 36 23.0912 36 18 36H10.8C5.70883 36 3.16325 36 1.58162 34.4184C0 32.8368 0 30.2912 0 25.2V10.8C0 5.70883 0 3.16325 1.58162 1.58162C3.16325 0 5.70883 0 10.8 0H15.2ZM17.2 0.000203811V10.6C17.2 11.0997 17.2021 11.3738 17.2277 11.564L17.2287 11.5713L17.236 11.5723C17.4262 11.5979 17.7003 11.6 18.2 11.6H28.7998C28.7977 10.3781 28.7752 9.71514 28.526 9.11351C28.2519 8.45193 27.7317 7.93168 26.6912 6.89117L21.9088 2.10883C20.8683 1.06832 20.3481 0.548067 19.6865 0.274034C19.0849 0.0248282 18.4219 0.0022495 17.2 0.000203811ZM8 19.8C8 19.2477 8.44772 18.8 9 18.8H19.8C20.3523 18.8 20.8 19.2477 20.8 19.8C20.8 20.3523 20.3523 20.8 19.8 20.8H9C8.44771 20.8 8 20.3523 8 19.8ZM9 26C8.44772 26 8 26.4477 8 27C8 27.5523 8.44771 28 9 28H16.2C16.7523 28 17.2 27.5523 17.2 27C17.2 26.4477 16.7523 26 16.2 26H9Z" fill="#222222"/>
</svg>
