<svg width="36" height="35" viewBox="0 0 36 35" fill="none" xmlns="http://www.w3.org/2000/svg">
<path fill-rule="evenodd" clip-rule="evenodd" d="M35.9688 17.5C35.9688 27.165 28.1337 35 18.4688 35C8.80377 35 0.96875 27.165 0.96875 17.5C0.96875 7.83502 8.80377 0 18.4688 0C28.1337 0 35.9688 7.83502 35.9688 17.5ZM25.463 24.494C24.682 25.275 23.4157 25.275 22.6346 24.494L18.5691 20.4285L14.1501 24.8475C13.1738 25.8238 11.5909 25.8238 10.6146 24.8475C9.63825 23.8712 9.63825 22.2883 10.6146 21.312L15.0336 16.8929L10.9679 12.8273C10.1869 12.0462 10.1869 10.7799 10.9679 9.99886C11.749 9.21781 13.0153 9.21781 13.7964 9.99886L17.862 14.0645L22.2812 9.64531C23.2575 8.669 24.8404 8.669 25.8168 9.64531C26.7931 10.6216 26.7931 12.2045 25.8168 13.1808L21.3976 17.6L25.463 21.6655C26.2441 22.4466 26.2441 23.7129 25.463 24.494Z" fill="black"/>
</svg>
