<svg width="52" height="52" viewBox="0 0 52 52" fill="none" xmlns="http://www.w3.org/2000/svg">
<g id="icon-back-circle">
<path id="Vector (Stroke)" fill-rule="evenodd" clip-rule="evenodd" d="M26.4722 16.7215C27.1093 17.3536 27.1133 18.3825 26.4812 19.0196L19.5548 26L26.4812 32.9804C27.1133 33.6175 27.1093 34.6464 26.4722 35.2785C25.8352 35.9106 24.8063 35.9066 24.1741 35.2696L16.1121 27.1446C15.4835 26.511 15.4835 25.489 16.1121 24.8554L24.1741 16.7304C24.8063 16.0934 25.8352 16.0894 26.4722 16.7215Z" fill="white"/>
<path id="Vector (Stroke)_2" fill-rule="evenodd" clip-rule="evenodd" d="M16.7607 26C16.7607 25.1025 17.4883 24.375 18.3857 24.375H34.7343C35.6317 24.375 36.3593 25.1025 36.3593 26C36.3593 26.8975 35.6317 27.625 34.7343 27.625H18.3857C17.4883 27.625 16.7607 26.8975 16.7607 26Z" fill="white"/>
<path id="Vector (Stroke)_3" fill-rule="evenodd" clip-rule="evenodd" d="M4.875 26C4.875 14.3369 14.3369 4.875 26 4.875C37.6631 4.875 47.125 14.3369 47.125 26C47.125 37.6631 37.6631 47.125 26 47.125C14.3369 47.125 4.875 37.6631 4.875 26ZM26 8.125C16.1318 8.125 8.125 16.1318 8.125 26C8.125 35.8682 16.1318 43.875 26 43.875C35.8682 43.875 43.875 35.8682 43.875 26C43.875 16.1318 35.8682 8.125 26 8.125Z" fill="white"/>
</g>
</svg>
