<svg width="36" height="35" viewBox="0 0 36 35" fill="none" xmlns="http://www.w3.org/2000/svg">
<path fill-rule="evenodd" clip-rule="evenodd" d="M0 6.4C0 4.15979 0 3.03969 0.435974 2.18404C0.819467 1.43139 1.43139 0.819467 2.18404 0.435974C3.03969 0 4.15979 0 6.4 0H29.6C31.8402 0 32.9603 0 33.816 0.435974C34.5686 0.819467 35.1805 1.43139 35.564 2.18404C36 3.03969 36 4.15979 36 6.4V21.6C36 23.8402 36 24.9603 35.564 25.816C35.1805 26.5686 34.5686 27.1805 33.816 27.564C32.9603 28 31.8402 28 29.6 28H8.41405C8.14883 28 7.89447 28.1054 7.70694 28.2929L1.7071 34.2927C1.07714 34.9227 0 34.4765 0 33.5856V28V27.9998V17.9998V6.4ZM12 8.99995C11.4477 8.99995 11 9.44766 11 9.99995C11 10.5522 11.4477 10.9999 12 10.9999H24C24.5523 10.9999 25 10.5522 25 9.99995C25 9.44766 24.5523 8.99995 24 8.99995H12ZM12 16.9999C11.4477 16.9999 11 17.4477 11 17.9999C11 18.5522 11.4477 19 12 19H18C18.5523 19 19 18.5522 19 17.9999C19 17.4477 18.5523 16.9999 18 16.9999H12Z" fill="#222222"/>
</svg>
