<svg width="40" height="39" viewBox="0 0 40 39" fill="none" xmlns="http://www.w3.org/2000/svg">
<path d="M28.2932 3.23354C30.4355 3.23994 32.4883 4.09382 34.0032 5.60869C35.518 7.12357 36.3719 9.17634 36.3783 11.3187V27.4873C36.3719 29.6296 35.518 31.6824 34.0032 33.1973C32.4883 34.7121 30.4355 35.566 28.2932 35.5724H12.1246C9.98225 35.566 7.92948 34.7121 6.4146 33.1973C4.89973 31.6824 4.04585 29.6296 4.03945 27.4873V11.3187C4.04585 9.17634 4.89973 7.12357 6.4146 5.60869C7.92948 4.09382 9.98225 3.23994 12.1246 3.23354H28.2932ZM28.2932 0H12.1246C5.89919 0 0.805908 5.09328 0.805908 11.3187V27.4873C0.805908 33.7127 5.89919 38.8059 12.1246 38.8059H28.2932C34.5186 38.8059 39.6119 33.7127 39.6119 27.4873V11.3187C39.6119 5.09328 34.5186 0 28.2932 0Z" fill="white"/>
<path d="M30.7183 11.3186C30.2386 11.3186 29.7697 11.1764 29.3709 10.9099C28.972 10.6434 28.6612 10.2646 28.4776 9.82142C28.294 9.37824 28.246 8.89058 28.3396 8.4201C28.4332 7.94963 28.6642 7.51747 29.0033 7.17827C29.3425 6.83908 29.7747 6.60808 30.2452 6.5145C30.7157 6.42092 31.2033 6.46895 31.6465 6.65252C32.0897 6.83609 32.4685 7.14695 32.735 7.5458C33.0015 7.94465 33.1437 8.41357 33.1437 8.89327C33.1444 9.21196 33.0821 9.52766 32.9605 9.82223C32.8388 10.1168 32.6602 10.3844 32.4349 10.6098C32.2095 10.8351 31.9419 11.0138 31.6473 11.1354C31.3527 11.2571 31.037 11.3193 30.7183 11.3186Z" fill="white"/>
<path d="M20.2089 12.935C21.4882 12.935 22.7387 13.3143 23.8023 14.025C24.866 14.7357 25.695 15.7459 26.1845 16.9277C26.6741 18.1096 26.8022 19.4101 26.5526 20.6647C26.303 21.9194 25.687 23.0719 24.7825 23.9764C23.8779 24.881 22.7254 25.497 21.4708 25.7466C20.2161 25.9961 18.9156 25.868 17.7338 25.3785C16.5519 24.889 15.5417 24.0599 14.831 22.9963C14.1203 21.9327 13.741 20.6821 13.741 19.4029C13.7428 17.6881 14.4249 16.044 15.6374 14.8314C16.85 13.6188 18.4941 12.9368 20.2089 12.935ZM20.2089 9.70142C18.2902 9.70142 16.4145 10.2704 14.8191 11.3364C13.2237 12.4024 11.9802 13.9176 11.2459 15.6903C10.5116 17.463 10.3195 19.4137 10.6939 21.2956C11.0682 23.1775 11.9922 24.9061 13.349 26.2629C14.7057 27.6197 16.4344 28.5436 18.3163 28.918C20.1982 29.2923 22.1488 29.1002 23.9215 28.3659C25.6942 27.6316 27.2094 26.3882 28.2754 24.7928C29.3414 23.1974 29.9104 21.3217 29.9104 19.4029C29.9104 16.8299 28.8883 14.3623 27.0689 12.5429C25.2495 10.7235 22.7819 9.70142 20.2089 9.70142Z" fill="white"/>
</svg>
