<svg width="36" height="35" viewBox="0 0 36 35" fill="none" xmlns="http://www.w3.org/2000/svg">
<path fill-rule="evenodd" clip-rule="evenodd" d="M18.4688 35C28.1337 35 35.9688 27.165 35.9688 17.5C35.9688 7.83502 28.1337 0 18.4688 0C8.80377 0 0.96875 7.83502 0.96875 17.5C0.96875 27.165 8.80377 35 18.4688 35ZM29.1356 11.9325C29.8428 11.084 29.7281 9.82286 28.8796 9.11573C28.031 8.4086 26.7699 8.52325 26.0627 9.37181L16.0517 21.385L10.7525 16.0858C9.97148 15.3047 8.70515 15.3047 7.9241 16.0858C7.14305 16.8668 7.14305 18.1332 7.9241 18.9142L13.2233 24.2134L13.2829 24.2731C13.5907 24.5812 13.9511 24.9421 14.3009 25.2066C14.7196 25.5232 15.3764 25.9032 16.2549 25.8633C17.1334 25.8235 17.7531 25.3856 18.1414 25.0324C18.4658 24.7373 18.7921 24.3453 19.0706 24.0106L19.1246 23.9457L29.1356 11.9325Z" fill="black"/>
</svg>
