<svg width="77" height="85" viewBox="0 0 77 85" fill="none" xmlns="http://www.w3.org/2000/svg">
<path d="M17.1809 74L14.8449 69.76H14.1889V74H11.4529V62.768H16.0449C16.9303 62.768 17.6823 62.9227 18.3009 63.232C18.9303 63.5413 19.3996 63.968 19.7089 64.512C20.0183 65.0453 20.1729 65.6427 20.1729 66.304C20.1729 67.0507 19.9596 67.7173 19.5329 68.304C19.1169 68.8907 18.4983 69.3067 17.6769 69.552L20.2689 74H17.1809ZM14.1889 67.824H15.8849C16.3863 67.824 16.7596 67.7013 17.0049 67.456C17.2609 67.2107 17.3889 66.864 17.3889 66.416C17.3889 65.9893 17.2609 65.6533 17.0049 65.408C16.7596 65.1627 16.3863 65.04 15.8849 65.04H14.1889V67.824ZM30.3064 69.392C30.3064 69.648 30.2904 69.9147 30.2584 70.192H24.0664C24.1091 70.7467 24.2851 71.1733 24.5944 71.472C24.9144 71.76 25.3038 71.904 25.7624 71.904C26.4451 71.904 26.9198 71.616 27.1864 71.04H30.0984C29.9491 71.6267 29.6771 72.1547 29.2824 72.624C28.8984 73.0933 28.4131 73.4613 27.8264 73.728C27.2398 73.9947 26.5838 74.128 25.8584 74.128C24.9838 74.128 24.2051 73.9413 23.5224 73.568C22.8398 73.1947 22.3064 72.6613 21.9224 71.968C21.5384 71.2747 21.3464 70.464 21.3464 69.536C21.3464 68.608 21.5331 67.7973 21.9064 67.104C22.2904 66.4107 22.8238 65.8773 23.5064 65.504C24.1891 65.1307 24.9731 64.944 25.8584 64.944C26.7224 64.944 27.4904 65.1253 28.1624 65.488C28.8344 65.8507 29.3571 66.368 29.7304 67.04C30.1144 67.712 30.3064 68.496 30.3064 69.392ZM27.5064 68.672C27.5064 68.2027 27.3464 67.8293 27.0264 67.552C26.7064 67.2747 26.3064 67.136 25.8264 67.136C25.3678 67.136 24.9784 67.2693 24.6584 67.536C24.3491 67.8027 24.1571 68.1813 24.0824 68.672H27.5064ZM36.7258 71.68V74H35.3338C34.3418 74 33.5685 73.76 33.0138 73.28C32.4591 72.7893 32.1818 71.9947 32.1818 70.896V67.344H31.0938V65.072H32.1818V62.896H34.9178V65.072H36.7098V67.344H34.9178V70.928C34.9178 71.1947 34.9818 71.3867 35.1098 71.504C35.2378 71.6213 35.4511 71.68 35.7498 71.68H36.7258ZM47.0658 65.072V74H44.3298V72.784C44.0525 73.1787 43.6738 73.4987 43.1938 73.744C42.7245 73.9787 42.2018 74.096 41.6258 74.096C40.9431 74.096 40.3405 73.9467 39.8178 73.648C39.2951 73.3387 38.8898 72.896 38.6018 72.32C38.3138 71.744 38.1698 71.0667 38.1698 70.288V65.072H40.8898V69.92C40.8898 70.5173 41.0445 70.9813 41.3538 71.312C41.6631 71.6427 42.0791 71.808 42.6018 71.808C43.1351 71.808 43.5565 71.6427 43.8658 71.312C44.1751 70.9813 44.3298 70.5173 44.3298 69.92V65.072H47.0658ZM51.7671 66.56C52.0871 66.0693 52.4871 65.6853 52.9671 65.408C53.4471 65.12 53.9804 64.976 54.5671 64.976V67.872H53.8151C53.1324 67.872 52.6204 68.0213 52.2791 68.32C51.9377 68.608 51.7671 69.12 51.7671 69.856V74H49.0311V65.072H51.7671V66.56ZM61.3148 64.976C62.3601 64.976 63.1921 65.3173 63.8108 66C64.4401 66.672 64.7548 67.6 64.7548 68.784V74H62.0348V69.152C62.0348 68.5547 61.8801 68.0907 61.5708 67.76C61.2615 67.4293 60.8455 67.264 60.3228 67.264C59.8001 67.264 59.3841 67.4293 59.0748 67.76C58.7655 68.0907 58.6108 68.5547 58.6108 69.152V74H55.8748V65.072H58.6108V66.256C58.8881 65.8613 59.2615 65.552 59.7308 65.328C60.2001 65.0933 60.7281 64.976 61.3148 64.976Z" fill="black"/>
<circle cx="38.4893" cy="25.97" r="25.97" fill="#16283D"/>
<path d="M48.6916 26.0943L27.4434 26.0943M27.4434 26.0943L35.2716 33.9226M27.4434 26.0943L35.2716 18.266" stroke="white" stroke-width="3" stroke-linecap="round" stroke-linejoin="round"/>
</svg>
