<svg width="24" height="24" viewBox="0 0 24 24" fill="none" xmlns="http://www.w3.org/2000/svg">
<path d="M16.2221 14.7869L16.2221 14.7869L16.2231 14.7912L17.5917 20.1717C17.5955 20.1865 17.5956 20.196 17.5953 20.2011C17.595 20.2064 17.594 20.2107 17.5925 20.2146C17.5893 20.2234 17.582 20.2341 17.5707 20.2427C17.5617 20.2495 17.5553 20.2513 17.5533 20.2517C17.5518 20.2512 17.5468 20.2495 17.5382 20.2442C17.538 20.244 17.5378 20.2439 17.5376 20.2438L12.8149 17.2453C12.8148 17.2452 12.8147 17.2451 12.8145 17.245C12.571 17.0903 12.2885 17.0081 12 17.0081C11.7118 17.0081 11.4296 17.0901 11.1862 17.2445C11.1862 17.2445 11.1862 17.2445 11.1862 17.2445C11.1858 17.2448 11.1854 17.245 11.1851 17.2453L6.78937 20.0289L6.78797 20.0298C6.74348 20.0581 6.71143 20.0614 6.68828 20.0598C6.66029 20.0578 6.62487 20.0464 6.58982 20.0197C6.52131 19.9677 6.48393 19.8855 6.51103 19.7795L6.51134 19.7782L7.77696 14.7907L7.77697 14.7907L7.77793 14.7869C7.84897 14.5006 7.83768 14.2 7.74535 13.9198C7.65322 13.6403 7.48414 13.3923 7.25753 13.2045C7.25704 13.2041 7.25655 13.2037 7.25606 13.2033L3.02102 9.67094L3.0198 9.66993C3.01103 9.66264 3.00732 9.65742 3.00574 9.65492C3.004 9.65216 3.0025 9.64894 3.00133 9.64449C2.99866 9.63438 2.99773 9.61694 3.00397 9.59679C3.01019 9.57669 3.01941 9.56693 3.02213 9.56463C3.02304 9.56386 3.02334 9.56374 3.02366 9.56361L3.02371 9.56359L3.02372 9.56359C3.02393 9.5635 3.02823 9.56168 3.03899 9.56096C3.03907 9.56096 3.03915 9.56095 3.03923 9.56095L8.56812 9.20485C8.86354 9.18714 9.14749 9.08402 9.38546 8.90799C9.62145 8.73342 9.80212 8.49461 9.90594 8.22019L11.9658 3.03308C11.9685 3.02631 11.9711 3.0195 11.9736 3.01265C11.9755 3.00723 11.9791 3.00254 11.9839 2.99923C11.9886 2.99592 11.9942 2.99414 12 2.99414C12.0058 2.99414 12.0114 2.99592 12.0161 2.99923C12.0209 3.00254 12.0245 3.00723 12.0264 3.01265C12.0289 3.0195 12.0315 3.02631 12.0342 3.03308L14.0941 8.22019C14.1979 8.49461 14.3786 8.73342 14.6145 8.90799C14.8525 9.08402 15.1365 9.18714 15.4319 9.20485C15.4328 9.2049 15.4337 9.20495 15.4346 9.20501L20.9608 9.56095C20.9609 9.56095 20.9609 9.56096 20.961 9.56096C20.9719 9.56169 20.9762 9.56355 20.9763 9.56359C20.9766 9.56373 20.9769 9.56381 20.9779 9.56463C20.9806 9.56693 20.9898 9.57669 20.996 9.59679C21.0023 9.61694 21.0013 9.63438 20.9987 9.64449C20.9975 9.64894 20.996 9.65216 20.9943 9.65491C20.9927 9.65742 20.989 9.66264 20.9802 9.66993L20.979 9.67094L16.744 13.2033C16.7435 13.2037 16.743 13.2041 16.7425 13.2045C16.5159 13.3923 16.3468 13.6403 16.2547 13.9198C16.1623 14.2 16.151 14.5006 16.2221 14.7869Z" stroke="white" stroke-width="1.5" stroke-linecap="round" stroke-linejoin="round"/>
</svg>
