<svg width="40" height="39" viewBox="0 0 40 39" fill="none" xmlns="http://www.w3.org/2000/svg">
<path d="M34.6593 11.6107C34.6743 11.9522 34.6743 12.2781 34.6743 12.6196C34.6892 22.9731 27.0825 34.9254 13.1718 34.9254C9.06896 34.9254 5.04099 33.6991 1.58203 31.4018C2.18099 31.4794 2.77994 31.5104 3.37889 31.5104C6.77796 31.5104 10.0872 30.3307 12.7675 28.1421C9.53315 28.08 6.68812 25.8913 5.69984 22.6937C6.83786 22.9265 8.00582 22.88 9.11388 22.554C5.59503 21.84 3.06444 18.6268 3.04947 14.8859C3.04947 14.8549 3.04947 14.8238 3.04947 14.7928C4.09764 15.3982 5.28058 15.7397 6.47848 15.7707C3.16926 13.4734 2.13606 8.89426 4.14256 5.30858C7.99084 10.2137 13.651 13.1784 19.7304 13.5044C19.1164 10.788 19.955 7.93187 21.9165 6.00709C24.9562 3.0423 29.7479 3.19753 32.6228 6.34858C34.3149 6.00709 35.947 5.35515 37.4295 4.43932C36.8604 6.25545 35.6775 7.79217 34.1053 8.77008C35.6026 8.58381 37.0701 8.16471 38.4477 7.54381C37.4295 9.1271 36.1417 10.4931 34.6593 11.6107Z" fill="white"/>
</svg>
