<svg width="56" height="53" viewBox="0 0 56 53" fill="none" xmlns="http://www.w3.org/2000/svg">
<path d="M28.0936 6.99707C17.3414 6.99707 8.59363 15.7449 8.59363 26.4971C8.59363 37.2493 17.3414 45.9971 28.0936 45.9971C38.8458 45.9971 47.5936 37.2493 47.5936 26.4971C47.5936 15.7449 38.8458 6.99707 28.0936 6.99707ZM23.3855 17.9489C24.5733 16.6899 26.2449 15.9971 28.0936 15.9971C29.9424 15.9971 31.5989 16.6946 32.7914 17.9602C33.9999 19.2427 34.5877 20.9658 34.4489 22.8183C34.1714 26.4971 31.3214 29.4971 28.0936 29.4971C24.8658 29.4971 22.0102 26.4971 21.7383 22.8174C21.6005 20.9499 22.1874 19.2211 23.3855 17.9489ZM28.0936 42.9971C25.8909 42.9985 23.7104 42.5577 21.6813 41.7006C19.6522 40.8435 17.8158 39.5877 16.2811 38.0077C17.1601 36.7542 18.28 35.6885 19.5755 34.8727C21.9652 33.3408 24.9896 32.4971 28.0936 32.4971C31.1977 32.4971 34.2221 33.3408 36.6089 34.8727C37.9055 35.6881 39.0264 36.7539 39.9061 38.0077C38.3716 39.5879 36.5352 40.8438 34.5061 41.7009C32.477 42.558 30.2963 42.9987 28.0936 42.9971Z" fill="white"/>
</svg>
