<svg width="41" height="41" viewBox="0 0 41 41" fill="none" xmlns="http://www.w3.org/2000/svg">
<path d="M0 20.5C0 9.17816 9.17816 0 20.5 0C31.8218 0 41 9.17816 41 20.5C41 31.8218 31.8218 41 20.5 41C9.17816 41 0 31.8218 0 20.5Z" fill="#7E869E" fill-opacity="0.25"/>
<ellipse cx="20.4995" cy="16.0783" rx="9.2451" ry="8.84314" fill="#222222"/>
<path fill-rule="evenodd" clip-rule="evenodd" d="M34.8931 35.1342C34.9468 35.2314 34.928 35.3523 34.8479 35.4292C31.3583 38.779 26.6553 40.8744 21.4602 40.9941C21.2298 40.9994 20.9574 40.9994 20.4125 40.9994C19.8676 40.9994 19.5952 40.9994 19.3647 40.9941C14.1698 40.8744 9.46702 38.7791 5.97752 35.4296C5.89739 35.3527 5.87858 35.2319 5.93227 35.1346C8.49805 30.4886 14.0176 27.275 20.4128 27.275C26.8078 27.275 32.3272 30.4884 34.8931 35.1342Z" fill="#222222"/>
</svg>
