<svg width="58" height="58" viewBox="0 0 58 58" fill="none" xmlns="http://www.w3.org/2000/svg">
<circle cx="29" cy="19.333" r="6.25" stroke="white" stroke-width="2" stroke-linecap="round"/>
<path d="M33.5 14.4996C34 13.9582 34.0243 13.6393 35.0073 13.1545C35.9903 12.6697 37.095 12.4874 38.1816 12.6304C39.2683 12.7735 40.2881 13.2356 41.1122 13.9582C41.9362 14.6809 42.5275 15.6317 42.8111 16.6904C43.0948 17.7491 43.0582 18.8681 42.7059 19.906C42.3536 20.9439 41.7014 21.854 40.8318 22.5212C39.9623 23.1884 38.9144 23.5828 37.8207 23.6545C36.727 23.7262 35.6367 23.4719 34.6875 22.9239" stroke="white" stroke-width="2"/>
<path d="M24.5 14.4996C23.9061 13.5784 23.5 13.4996 22.7463 13.0404C21.7408 12.6044 20.6285 12.4763 19.5501 12.6724C18.4718 12.8686 17.4758 13.38 16.6881 14.1422C15.9005 14.9044 15.3565 15.883 15.125 16.9543C14.8936 18.0256 14.985 19.1415 15.3877 20.1609C15.7904 21.1803 16.4864 22.0573 17.3875 22.6811C18.2887 23.305 19.3547 23.6476 20.4506 23.6656C21.5464 23.6836 22.6231 23.3763 23.5443 22.7824" stroke="white" stroke-width="2"/>
<path d="M29.0006 30.208C40.1652 30.208 41.9519 40.4383 42.2378 43.7128C42.2859 44.263 41.8446 44.708 41.2923 44.708H16.709C16.1567 44.708 15.7154 44.263 15.7635 43.7128C16.0494 40.4383 17.8361 30.208 29.0006 30.208Z" stroke="white" stroke-width="2" stroke-linecap="round"/>
<path d="M46.9618 38.7842L45.9775 38.961V38.961L46.9618 38.7842ZM31.627 30.4163L30.8885 29.742L29.6476 31.1011L31.463 31.4027L31.627 30.4163ZM41.5213 39.8753L40.5607 40.1532L40.7696 40.8753H41.5213V39.8753ZM37.4581 28.792C40.4334 28.792 42.3999 30.4943 43.7398 32.6937C45.0927 34.9144 45.7188 37.5203 45.9775 38.961L47.946 38.6074C47.6709 37.0756 46.9906 34.1854 45.4478 31.6531C43.8921 29.0996 41.3738 26.792 37.4581 26.792V28.792ZM32.3654 31.0905C33.607 29.7307 35.2406 28.792 37.4581 28.792V26.792C34.5848 26.792 32.4407 28.0419 30.8885 29.742L32.3654 31.0905ZM31.463 31.4027C37.137 32.3457 39.5305 36.5924 40.5607 40.1532L42.4819 39.5974C41.3536 35.6974 38.5637 30.5553 31.7909 29.4298L31.463 31.4027ZM46.0198 38.8753H41.5213V40.8753H46.0198V38.8753ZM45.9775 38.961C45.9765 38.9551 45.9759 38.9412 45.9807 38.9245C45.9852 38.909 45.9922 38.8977 45.9986 38.8904C46.0116 38.8755 46.0234 38.8753 46.0198 38.8753V40.8753C47.1899 40.8753 48.1685 39.846 47.946 38.6074L45.9775 38.961Z" fill="white"/>
<path d="M26.3734 30.4163L26.5373 31.4028L28.3527 31.1011L27.1119 29.742L26.3734 30.4163ZM11.0385 38.7842L10.0542 38.6074L10.0542 38.6074L11.0385 38.7842ZM16.479 39.8753V40.8753H17.2307L17.4396 40.1532L16.479 39.8753ZM20.5422 28.792C22.7597 28.792 24.3933 29.7307 25.6349 31.0905L27.1119 29.742C25.5596 28.0419 23.4155 26.792 20.5422 26.792V28.792ZM12.0227 38.961C12.2815 37.5203 12.9075 34.9144 14.2605 32.6937C15.6004 30.4943 17.567 28.792 20.5422 28.792V26.792C16.6266 26.792 14.1082 29.0996 12.5525 31.6531C11.0097 34.1854 10.3294 37.0756 10.0542 38.6074L12.0227 38.961ZM11.9805 38.8753C11.9769 38.8753 11.9887 38.8755 12.0017 38.8904C12.008 38.8977 12.0151 38.909 12.0195 38.9245C12.0243 38.9412 12.0238 38.9551 12.0227 38.961L10.0542 38.6074C9.83174 39.846 10.8104 40.8753 11.9805 40.8753V38.8753ZM16.479 38.8753H11.9805V40.8753H16.479V38.8753ZM17.4396 40.1532C18.4698 36.5924 20.8633 32.3457 26.5373 31.4028L26.2094 29.4298C19.4366 30.5553 16.6467 35.6974 15.5184 39.5974L17.4396 40.1532Z" fill="white"/>
</svg>
