<svg width="84" height="84" viewBox="0 0 84 84" fill="none" xmlns="http://www.w3.org/2000/svg">
<path fill-rule="evenodd" clip-rule="evenodd" d="M42 84C65.196 84 84 65.196 84 42C84 18.804 65.196 0 42 0C18.804 0 0 18.804 0 42C0 65.196 18.804 84 42 84ZM44.8446 19.9288C48.3124 18.37 52.2968 18.4498 55.6994 20.1462C60.7336 22.6559 60.6287 29.8747 55.5236 32.2371L44.1976 37.4781C43.1161 37.9785 41.865 37.9555 40.8026 37.4157L30.1553 32.0051C29.0484 31.4426 27.6952 31.884 27.1327 32.9908C26.5703 34.0976 27.0116 35.4509 28.1184 36.0133L40.4481 42.2788C41.6763 42.903 43.1229 42.9295 44.3731 42.351L57.4118 36.3174C65.9386 32.3717 66.1139 20.3144 57.7054 16.1224C53.0961 13.8245 47.6989 13.7165 43.0013 15.828L19.8345 26.2416C18.2202 26.9673 17.1818 28.5725 17.1818 30.3424V37.739C17.1818 39.4439 18.1461 41.0021 19.6718 41.7628L40.4331 52.113C41.6963 52.7428 43.1819 52.7428 44.445 52.113L61.1491 43.7854C62.092 43.3153 63.2003 44.0012 63.2003 45.0548C63.2003 45.5927 62.8961 46.0843 62.4147 46.3242L44.1742 55.4179C43.0816 55.9626 41.7966 55.9626 40.704 55.4179L23.6838 46.9327C20.6947 45.4425 17.1818 47.6164 17.1818 50.9564V54.9455C17.1818 56.6504 18.1461 58.2086 19.6719 58.9693L40.4407 69.3233C41.6953 69.9488 43.1698 69.9533 44.4282 69.3355L60.3272 61.5297C61.4417 60.9825 61.9016 59.6355 61.3544 58.521C60.8072 57.4065 59.4602 56.9466 58.3457 57.4938L44.1738 64.4517C43.0853 64.986 41.81 64.9822 40.7248 64.4412L22.6664 55.4384C22.0607 55.1364 21.6778 54.5177 21.6778 53.8409C21.6778 52.5148 23.0725 51.6517 24.2593 52.2434L40.4331 60.3066C41.6963 60.9364 43.1819 60.9364 44.445 60.3066L65.2063 49.9563C66.732 49.1957 67.6963 47.6375 67.6963 45.9326V42.7628C67.6963 39.4228 64.1834 37.2489 61.1943 38.7391L44.1742 47.2243C43.0816 47.769 41.7966 47.769 40.704 47.2243L23.8316 38.8128C22.5119 38.1548 21.6778 36.8071 21.6778 35.3324V32.8581C21.6778 31.3272 22.576 29.9387 23.9723 29.3111L44.8446 19.9288Z" fill="white"/>
</svg>
