<svg width="51" height="51" viewBox="0 0 51 51" fill="none" xmlns="http://www.w3.org/2000/svg">
<path d="M50.3707 25.0745C50.3707 38.9228 39.1445 50.149 25.2962 50.149C11.4479 50.149 0.22168 38.9228 0.22168 25.0745C0.22168 11.2262 11.4479 0 25.2962 0C39.1445 0 50.3707 11.2262 50.3707 25.0745Z" fill="#15283D"/>
<path d="M25.2742 13.3731C22.1474 13.3787 19.3085 14.6108 17.2125 16.6138L15.5273 14.9287C14.8139 14.2153 13.5942 14.7206 13.5942 15.7294V22.0548C13.5942 22.6802 14.1012 23.1872 14.7266 23.1872H21.0519C22.0608 23.1872 22.566 21.9674 21.8527 21.254L19.8828 19.2841C21.339 17.9206 23.2234 17.1653 25.2253 17.148C29.585 17.1104 33.2598 20.6385 33.2221 25.1428C33.1864 29.4158 29.7222 33.0013 25.2956 33.0013C23.3551 33.0013 21.5211 32.3087 20.0758 31.0405C19.852 30.8442 19.514 30.8561 19.3035 31.0666L17.4321 32.938C17.2022 33.1679 17.2136 33.5427 17.4549 33.7605C19.5297 35.6347 22.2794 36.7759 25.2956 36.7759C31.7581 36.7759 36.997 31.537 36.9971 25.0746C36.9971 18.6195 31.7293 13.3615 25.2742 13.3731Z" fill="white"/>
</svg>
