<svg width="337" height="86" viewBox="0 0 337 86" fill="none" xmlns="http://www.w3.org/2000/svg">
<path fill-rule="evenodd" clip-rule="evenodd" d="M35 78C54.33 78 70 62.33 70 43C70 23.67 54.33 8 35 8C15.67 8 0 23.67 0 43C0 62.33 15.67 78 35 78ZM37.0523 24.9252C39.9421 23.6262 43.2624 23.6927 46.0979 25.1063C50.2931 27.1978 50.2056 33.2134 45.9514 35.1821L36.5131 39.5496C35.6119 39.9666 34.5692 39.9475 33.684 39.4976L24.8111 34.9888C23.8888 34.52 22.7611 34.8878 22.2924 35.8102C21.8236 36.7325 22.1914 37.8602 23.1138 38.3289L33.3885 43.5502C34.412 44.0703 35.6175 44.0925 36.6594 43.6103L47.5249 38.5824C54.6306 35.2942 54.7767 25.2465 47.7696 21.7532C43.9285 19.8383 39.4308 19.7482 35.5162 21.5079L16.2105 30.1859C14.8652 30.7906 13.9999 32.1283 13.9999 33.6032V39.767C13.9999 41.1878 14.8035 42.4863 16.075 43.1201L33.376 51.7454C34.4286 52.2702 35.6666 52.2702 36.7193 51.7454L50.6393 44.8057C51.4251 44.4139 52.3487 44.9855 52.3487 45.8635C52.3487 46.3117 52.0951 46.7214 51.694 46.9214L36.4935 54.4994C35.583 54.9533 34.5122 54.9533 33.6017 54.4994L19.4183 47.4284C16.9273 46.1866 13.9999 47.9982 13.9999 50.7815V54.1058C13.9999 55.5265 14.8035 56.825 16.075 57.4589L33.3823 66.0873C34.4278 66.6085 35.6566 66.6122 36.7052 66.0974L49.9544 59.5925C50.8832 59.1366 51.2664 58.014 50.8104 57.0853C50.3545 56.1566 49.2319 55.7733 48.3032 56.2293L36.4932 62.0276C35.5862 62.4729 34.5234 62.4696 33.6191 62.0188L18.5705 54.5165C18.0657 54.2648 17.7466 53.7493 17.7466 53.1852C17.7466 52.0802 18.9089 51.3609 19.8978 51.854L33.376 58.5733C34.4286 59.0981 35.6666 59.0981 36.7193 58.5733L54.0203 49.9481C55.2918 49.3142 56.0954 48.0157 56.0954 46.595V43.9535C56.0954 41.1702 53.1679 39.3586 50.677 40.6004L36.4935 47.6714C35.583 48.1253 34.5122 48.1253 33.6017 47.6714L19.5415 40.6618C18.4417 40.1135 17.7466 38.9904 17.7466 37.7615V35.6996C17.7466 34.4238 18.4951 33.2668 19.6587 32.7437L37.0523 24.9252Z" fill="white"/>
<path d="M115.864 63.671C110.943 63.671 106.755 62.756 103.298 60.926C99.882 59.096 97.2793 56.534 95.49 53.24C93.7007 49.946 92.806 46.103 92.806 41.711C92.806 38.295 93.3347 35.2247 94.392 32.5C95.49 29.7347 97.0557 27.376 99.089 25.424C101.122 23.4313 103.603 21.9267 106.531 20.91C109.5 19.8527 112.855 19.324 116.596 19.324C118.629 19.324 120.703 19.5273 122.818 19.934C124.933 20.3 127.007 21.0117 129.04 22.069C130.097 22.557 130.809 23.2483 131.175 24.143C131.582 24.997 131.704 25.912 131.541 26.888C131.419 27.8233 131.073 28.6977 130.504 29.511C129.975 30.2837 129.243 30.8123 128.308 31.097C127.373 31.341 126.315 31.1987 125.136 30.67C123.916 30.1007 122.594 29.6737 121.171 29.389C119.748 29.0637 118.243 28.901 116.657 28.901C113.932 28.901 111.655 29.389 109.825 30.365C108.036 31.341 106.694 32.7847 105.799 34.696C104.904 36.6073 104.457 38.9457 104.457 41.711C104.457 45.859 105.474 48.9903 107.507 51.105C109.54 53.2197 112.55 54.277 116.535 54.277C117.755 54.277 119.077 54.155 120.5 53.911C121.964 53.667 123.428 53.3213 124.892 52.874L122.818 57.083V46.652H118.548C117.165 46.652 116.088 46.3063 115.315 45.615C114.583 44.9237 114.217 43.9477 114.217 42.687C114.217 41.4263 114.583 40.4707 115.315 39.82C116.088 39.1287 117.165 38.783 118.548 38.783H127.576C128.999 38.783 130.077 39.1693 130.809 39.942C131.582 40.674 131.968 41.7517 131.968 43.175V56.656C131.968 57.876 131.704 58.913 131.175 59.767C130.687 60.621 129.894 61.231 128.796 61.597C126.885 62.2477 124.811 62.756 122.574 63.122C120.337 63.488 118.101 63.671 115.864 63.671ZM150.15 63.671C146.246 63.671 143.359 62.634 141.488 60.56C139.658 58.4453 138.743 55.2733 138.743 51.044V24.936C138.743 23.1467 139.211 21.7843 140.146 20.849C141.082 19.9137 142.403 19.446 144.111 19.446C145.86 19.446 147.202 19.9137 148.137 20.849C149.113 21.7843 149.601 23.1467 149.601 24.936V50.678C149.601 52.1827 149.886 53.2807 150.455 53.972C151.065 54.6633 151.838 55.009 152.773 55.009C153.058 55.009 153.343 54.9887 153.627 54.948C153.953 54.8667 154.298 54.8057 154.664 54.765C155.356 54.765 155.864 55.0293 156.189 55.558C156.555 56.0867 156.738 57.1643 156.738 58.791C156.738 60.2143 156.454 61.292 155.884 62.024C155.315 62.7153 154.441 63.1627 153.261 63.366C152.936 63.4067 152.468 63.4677 151.858 63.549C151.248 63.6303 150.679 63.671 150.15 63.671ZM174.841 63.671C171.507 63.671 168.599 63.0407 166.118 61.78C163.638 60.5193 161.706 58.7097 160.323 56.351C158.941 53.9923 158.249 51.2067 158.249 47.994C158.249 45.554 158.636 43.3783 159.408 41.467C160.181 39.515 161.299 37.868 162.763 36.526C164.227 35.1433 165.976 34.1063 168.009 33.415C170.043 32.683 172.32 32.317 174.841 32.317C178.176 32.317 181.084 32.9473 183.564 34.208C186.045 35.4687 187.956 37.2783 189.298 39.637C190.681 41.955 191.372 44.7407 191.372 47.994C191.372 50.3933 190.986 52.569 190.213 54.521C189.441 56.473 188.322 58.1403 186.858 59.523C185.435 60.865 183.686 61.902 181.612 62.634C179.579 63.3253 177.322 63.671 174.841 63.671ZM174.841 55.68C175.939 55.68 176.915 55.4157 177.769 54.887C178.623 54.3177 179.274 53.484 179.721 52.386C180.209 51.2473 180.453 49.7833 180.453 47.994C180.453 45.2693 179.925 43.3173 178.867 42.138C177.81 40.918 176.468 40.308 174.841 40.308C173.743 40.308 172.767 40.5723 171.913 41.101C171.059 41.6297 170.388 42.4633 169.9 43.602C169.412 44.7 169.168 46.164 169.168 47.994C169.168 50.678 169.697 52.63 170.754 53.85C171.812 55.07 173.174 55.68 174.841 55.68ZM208.627 63.549C207.245 63.549 206.045 63.2237 205.028 62.573C204.012 61.8817 203.198 60.8243 202.588 59.401L194.292 39.332C193.764 38.0713 193.581 36.9327 193.743 35.916C193.906 34.8587 194.394 34.025 195.207 33.415C196.061 32.7643 197.22 32.439 198.684 32.439C199.945 32.439 200.982 32.744 201.795 33.354C202.609 33.9233 203.341 35.062 203.991 36.77L209.847 52.142H208.566L214.727 35.611C215.134 34.513 215.683 33.72 216.374 33.232C217.106 32.7033 218.021 32.439 219.119 32.439C220.299 32.439 221.234 32.7033 221.925 33.232C222.617 33.7607 223.166 34.5537 223.572 35.611L229.733 52.142H228.635L234.552 36.404C235.122 34.8587 235.854 33.8217 236.748 33.293C237.643 32.7237 238.599 32.439 239.615 32.439C240.998 32.439 242.055 32.7643 242.787 33.415C243.519 34.0657 243.926 34.9197 244.007 35.977C244.129 37.0343 243.926 38.173 243.397 39.393L235.162 59.34C234.593 60.7633 233.8 61.8207 232.783 62.512C231.767 63.2033 230.567 63.549 229.184 63.549C227.761 63.549 226.541 63.2033 225.524 62.512C224.548 61.8207 223.755 60.7633 223.145 59.34L216.435 42.565H220.888L214.544 59.218C213.975 60.682 213.202 61.78 212.226 62.512C211.25 63.2033 210.051 63.549 208.627 63.549ZM268.295 63.671C265.164 63.671 262.399 63.2847 259.999 62.512C257.6 61.6987 255.567 60.499 253.899 58.913C252.273 57.327 251.032 55.3547 250.178 52.996C249.365 50.5967 248.958 47.8313 248.958 44.7V25.119C248.958 23.2483 249.446 21.8453 250.422 20.91C251.398 19.934 252.781 19.446 254.57 19.446C256.4 19.446 257.783 19.934 258.718 20.91C259.694 21.8453 260.182 23.2483 260.182 25.119V44.822C260.182 47.9533 260.874 50.312 262.256 51.898C263.639 53.484 265.652 54.277 268.295 54.277C270.898 54.277 272.891 53.484 274.273 51.898C275.656 50.312 276.347 47.9533 276.347 44.822V25.119C276.347 23.2483 276.815 21.8453 277.75 20.91C278.726 19.934 280.109 19.446 281.898 19.446C283.688 19.446 285.05 19.934 285.985 20.91C286.921 21.8453 287.388 23.2483 287.388 25.119V44.7C287.388 48.8887 286.656 52.4063 285.192 55.253C283.769 58.059 281.634 60.1737 278.787 61.597C275.941 62.9797 272.443 63.671 268.295 63.671ZM299.53 74.529C297.822 74.529 296.501 74.0613 295.565 73.126C294.63 72.1907 294.162 70.8283 294.162 69.039V37.868C294.162 36.1193 294.61 34.7773 295.504 33.842C296.44 32.9067 297.761 32.439 299.469 32.439C301.218 32.439 302.54 32.9067 303.434 33.842C304.37 34.7773 304.837 36.1193 304.837 37.868V41.406L304.166 38.417C304.736 36.587 305.915 35.123 307.704 34.025C309.534 32.8863 311.608 32.317 313.926 32.317C316.529 32.317 318.806 32.9473 320.758 34.208C322.751 35.4687 324.296 37.258 325.394 39.576C326.492 41.894 327.041 44.7 327.041 47.994C327.041 51.2067 326.492 53.9923 325.394 56.351C324.296 58.7097 322.751 60.5193 320.758 61.78C318.806 63.0407 316.529 63.671 313.926 63.671C311.69 63.671 309.677 63.1423 307.887 62.085C306.098 61.0277 304.898 59.645 304.288 57.937H305.02V69.039C305.02 70.8283 304.532 72.1907 303.556 73.126C302.621 74.0613 301.279 74.529 299.53 74.529ZM310.51 55.68C311.608 55.68 312.564 55.4157 313.377 54.887C314.231 54.3177 314.902 53.484 315.39 52.386C315.878 51.2473 316.122 49.7833 316.122 47.994C316.122 45.2693 315.594 43.3173 314.536 42.138C313.479 40.918 312.137 40.308 310.51 40.308C309.412 40.308 308.436 40.5723 307.582 41.101C306.728 41.6297 306.057 42.4633 305.569 43.602C305.081 44.7 304.837 46.164 304.837 47.994C304.837 50.678 305.366 52.63 306.423 53.85C307.481 55.07 308.843 55.68 310.51 55.68Z" fill="white"/>
</svg>
