<svg width="27" height="27" viewBox="0 0 27 27" fill="none" xmlns="http://www.w3.org/2000/svg">
<path fill-rule="evenodd" clip-rule="evenodd" d="M26.8096 13.4048C26.8096 20.808 20.808 26.8096 13.4048 26.8096C6.00153 26.8096 0 20.808 0 13.4048C0 6.00153 6.00153 0 13.4048 0C20.808 0 26.8096 6.00153 26.8096 13.4048ZM18.5804 18.5801C18.1899 18.9707 17.5567 18.9707 17.1662 18.5801L13.405 14.8189L9.64377 18.5801C9.25325 18.9707 8.62008 18.9707 8.22956 18.5801C7.83903 18.1896 7.83903 17.5564 8.22956 17.1659L11.9908 13.4047L8.2297 9.6436C7.83918 9.25308 7.83918 8.61991 8.2297 8.22939C8.62022 7.83886 9.25339 7.83886 9.64391 8.22939L13.405 11.9905L17.1661 8.22939C17.5566 7.83886 18.1898 7.83886 18.5803 8.22939C18.9708 8.61991 18.9708 9.25308 18.5803 9.6436L14.8192 13.4047L18.5804 17.1659C18.971 17.5564 18.971 18.1896 18.5804 18.5801Z" fill="white"/>
</svg>
