<svg width="26" height="26" viewBox="0 0 26 26" fill="none" xmlns="http://www.w3.org/2000/svg">
<path fill-rule="evenodd" clip-rule="evenodd" d="M26 13C26 20.1797 20.1797 26 13 26C5.8203 26 0 20.1797 0 13C0 5.8203 5.8203 0 13 0C20.1797 0 26 5.8203 26 13ZM18.2059 18.2056C17.6201 18.7914 16.6703 18.7914 16.0845 18.2056L12.8119 14.933L9.53932 18.2056C8.95353 18.7914 8.00378 18.7914 7.41799 18.2056C6.83221 17.6198 6.83221 16.6701 7.41799 16.0843L10.6906 12.8117L7.41787 9.53894C6.83209 8.95316 6.83209 8.00341 7.41787 7.41762C8.00366 6.83184 8.95341 6.83184 9.53919 7.41762L12.8119 10.6904L16.0847 7.41762C16.6704 6.83184 17.6202 6.83184 18.206 7.41762C18.7918 8.00341 18.7918 8.95316 18.206 9.53894L14.9332 12.8117L18.2059 16.0843C18.7916 16.6701 18.7916 17.6198 18.2059 18.2056Z" fill="white"/>
</svg>
